# xmcd
#
# Track frame offsets:
#	150
#	14452
#	32322
#	55785
#	67585
#	84092
#	96940
#	113495
#	125602
#	149862
#	159840
#	180522
#	194762
#	205742
#	225995
#	243770
#	253062
#	264777
#	275110
#
# Disc length: 3823 seconds
# Revision: 5
# Processed by: cddbd v1.5.2PL0 Copyright (c) Steve Scherf et al.
# Submitted via: dBpowerAMP V12.0
#
DISCID=f40eed13
DTITLE=Various Artist - Nothing But The Blues [CD 2]
DYEAR=1995
DGENRE=Blues
TTITLE0=Johnny Winter - See See Baby
TTITLE1=Muddy Waters - Muddy Waters/I'm Your Hooche Coochie Man
TTITLE2=Airthai - Bb King and Robert Cray/Playing With My Friends
TTITLE3=Little Walter - Litttle Walter/My Babe
TTITLE4=The Fabulous Thunderbirds - Runnin' Shoes
TTITLE5=Willie Mabon - Seventh Son
TTITLE6=Dr Feelgood - If My Baby Quits Me
TTITLE7=Jimmy Witherspoon - Jimmy Witherspoon/Ain't Nobody's Business
TTITLE8=Rory Gallagher - Calling Card
TTITLE9=John Lee Hooker - John Lee Hooker/Dimples
TTITLE10=Albert Collins - Albert Collins/Brick
TTITLE11=Lowell Fulson - Reconsider Baby
TTITLE12=Howlin Wolf - Little Red Rooster
TTITLE13=George Thorogood and the Destroyers - Madison Blues
TTITLE14=John Mayal and the Blues Breakers - Telephone Blues
TTITLE15=Jimmy Rogers - Jimmy Rodgers/If It Ain't Me
TTITLE16=Eddie Boyd - Come on Home
TTITLE17=Buddy Guy - First Time I Met the Blues
TTITLE18=Snooks Eaglin - You Give Me Nothing But the Blues
EXTD=
EXTT0=
EXTT1=
EXTT2=
EXTT3=
EXTT4=
EXTT5=
EXTT6=
EXTT7=
EXTT8=
EXTT9=
EXTT10=
EXTT11=
EXTT12=
EXTT13=
EXTT14=
EXTT15=
EXTT16=
EXTT17=
EXTT18=
PLAYORDER=
